<svg xmlns="http://www.w3.org/2000/svg" enable-background="new 0 0 32 32" viewBox="0 0 32 32" id="free-codecamp">
  <path fill="#F5E6FE" d="M26,32H6c-3.314,0-6-2.686-6-6V6c0-3.314,2.686-6,6-6h20c3.314,0,6,2.686,6,6v20C32,29.314,29.314,32,26,32z"></path>
  <path fill="#D9A4FC" d="M22.502 11.706c-.529-.672-.949-1.009-1.228-1.009-.081 0-.161.039-.231.098-.069.059-.109.149-.109.228 0 .149.131.337.38.563 1.249 1.178 1.877 2.701 1.877 4.581 0 1.692-.609 3.118-1.818 4.264-.299.273-.449.463-.449.587 0 .084.039.168.1.231.06.061.15.083.231.083.23 0 .569-.229.992-.711 1.163-1.297 1.732-2.762 1.732-4.413L24 16.228C24 14.477 23.5 12.963 22.502 11.706zM10.716 21.312c.085 0 .169-.044.235-.106.066-.061.107-.146.107-.23 0-.146-.126-.337-.379-.564-1.247-1.174-1.881-2.7-1.881-4.581 0-1.696.62-3.116 1.807-4.268.299-.291.449-.482.449-.606 0-.083-.04-.145-.1-.207-.06-.061-.15-.083-.229-.083-.231 0-.57.229-.993.711C8.569 12.673 8 14.14 8 15.79c0 1.777.489 3.284 1.498 4.519C10.028 20.975 10.426 21.312 10.716 21.312z"></path>
  <path fill="#BE63F9" d="M20.245 19.888c0-.253-.213-.441-.445-.441h-7.323c-.255 0-.445.188-.445.441 0 .25.212.44.445.44H19.8C20.054 20.327 20.241 20.142 20.245 19.888zM13.992 15.531c-.079.296-.139.597-.159.904-.05.966.459 1.852 1.259 2.391.18.125.499.277.729.199-.68-.359-.899-.65-1.009-1.069-.244-.972.677-1.592 1.075-2.361.107-.205.185-.429.154-.662-.009-.068-.068-.329-.154-.442.387-.048.642.212.779.543.143.356.233.733.163 1.118-.021.129-.12.534.07.553.259.04.479-.306.429-.633-.028-.149-.058-.385-.058-.385.28.336.399.673.439 1.038.077.663-.21 1.534-.749 2.068.23-.227.516-.386.729-.632.22-.248.389-.535.519-.841.299-.682.469-1.445.419-2.187-.02-.357-.071-.723-.18-1.079-.12-.396-.299-.763-.589-1.059l-.24-.227c-.069-.06-.219-.149-.259-.229.169.396.339.801.209 1.227-.06.188-.28.653-.559.535-.27-.11-.239-.664-.26-.892-.06-.554-.18-1.098-.479-1.573-.159-.258-.37-.486-.639-.644-.349-.208-.708-.346-1.108-.197.09-.03.319.227.359.277.14.165.25.357.31.561.119.416.009.894-.141 1.29C14.751 13.945 14.242 14.685 13.992 15.531z"></path>
</svg>
